<?xml version="1.0" encoding="utf-8"?>
<!-- Generated by IcoMoon.io -->
<!DOCTYPE svg PUBLIC "-//W3C//DTD SVG 1.1//EN" "http://www.w3.org/Graphics/SVG/1.1/DTD/svg11.dtd">
<svg version="1.1" xmlns="http://www.w3.org/2000/svg" xmlns:xlink="http://www.w3.org/1999/xlink" width="32" height="32" viewBox="0 0 32 32">
<path fill="#000" d="M1.037 16c0-3.997 1.556-7.754 4.383-10.581s6.584-4.383 10.581-4.383c4.046 0 7.88 1.625 10.688 4.492h-1.842c-0.286 0-0.518 0.232-0.518 0.518s0.232 0.518 0.518 0.518h3.317c0.286 0 0.518-0.232 0.518-0.518v-3.317c0-0.286-0.232-0.518-0.518-0.518s-0.518 0.232-0.518 0.518v2.299c-3.020-3.207-7.214-5.029-11.646-5.029-4.274 0-8.292 1.664-11.314 4.686s-4.686 7.040-4.686 11.314c0 2.812 0.74 5.578 2.14 7.999 0.096 0.166 0.27 0.259 0.449 0.259 0.088 0 0.177-0.022 0.259-0.070 0.248-0.143 0.333-0.46 0.189-0.708-1.309-2.263-2.001-4.85-2.001-7.48z"></path>
<path fill="#000" d="M29.859 7.999c-0.143-0.248-0.46-0.332-0.708-0.189s-0.332 0.461-0.189 0.708c1.31 2.264 2.002 4.851 2.002 7.482 0 3.997-1.556 7.754-4.383 10.581s-6.584 4.383-10.581 4.383c-4.043 0-7.88-1.625-10.688-4.492h1.841c0.286 0 0.518-0.232 0.518-0.518s-0.232-0.518-0.518-0.518h-3.317c-0.286 0-0.518 0.232-0.518 0.518v3.317c0 0.286 0.232 0.518 0.518 0.518s0.518-0.232 0.518-0.518v-2.299c3.020 3.206 7.218 5.029 11.646 5.029 4.274 0 8.292-1.664 11.314-4.686s4.686-7.040 4.686-11.314c0-2.813-0.74-5.58-2.141-8.001z"></path>
<path fill="#000" d="M16 4.423c-6.383 0-11.576 5.193-11.577 11.576 0 0 0 0.001 0 0.001s0 0.001 0 0.001c0 6.383 5.194 11.576 11.577 11.576s11.577-5.193 11.577-11.577-5.193-11.577-11.577-11.577zM16.518 26.527v-1.128c0-0.286-0.232-0.518-0.518-0.518s-0.518 0.232-0.518 0.518v1.128c-5.4-0.263-9.746-4.609-10.009-10.009h1.128c0.286 0 0.518-0.232 0.518-0.518s-0.232-0.518-0.518-0.518h-1.128c0.263-5.4 4.609-9.746 10.009-10.009v1.128c0 0.286 0.232 0.518 0.518 0.518s0.518-0.232 0.518-0.518v-1.128c5.4 0.263 9.746 4.609 10.009 10.009h-1.128c-0.286 0-0.518 0.232-0.518 0.518s0.232 0.518 0.518 0.518h1.128c-0.263 5.4-4.609 9.746-10.009 10.009z"></path>
<path fill="#000" d="M22.635 15.482h-4.521c-0.053-0.218-0.139-0.423-0.253-0.61l4.864-4.864c0.202-0.203 0.202-0.531 0-0.733s-0.531-0.202-0.733 0l-4.864 4.864c-0.329-0.2-0.716-0.316-1.128-0.316-1.022 0-1.881 0.708-2.114 1.659h-1.203c-0.286 0-0.518 0.232-0.518 0.518s0.232 0.518 0.518 0.518h1.203c0.053 0.218 0.139 0.423 0.253 0.61l-1.27 1.27c-0.202 0.203-0.202 0.531 0 0.733 0.101 0.101 0.234 0.152 0.367 0.152s0.265-0.051 0.367-0.152l1.27-1.27c0.329 0.2 0.716 0.316 1.128 0.316 1.022 0 1.881-0.708 2.114-1.659h4.521c0.286 0 0.518-0.232 0.518-0.518s-0.232-0.518-0.518-0.518zM16 17.14c-0.629 0-1.14-0.512-1.14-1.14s0.512-1.14 1.14-1.14 1.14 0.512 1.14 1.14-0.512 1.14-1.14 1.14z"></path>
</svg>
