<?xml version="1.0" encoding="utf-8"?>
<!-- Generated by IcoMoon.io -->
<!DOCTYPE svg PUBLIC "-//W3C//DTD SVG 1.1//EN" "http://www.w3.org/Graphics/SVG/1.1/DTD/svg11.dtd">
<svg version="1.1" xmlns="http://www.w3.org/2000/svg" xmlns:xlink="http://www.w3.org/1999/xlink" width="32" height="32" viewBox="0 0 32 32">
<path preserve--fill="#e8e8e8" d="M32 28.869h-23.528v-28.598h16.945l6.583 6.583z"></path>
<path preserve--fill="#ccced0" d="M25.417 6.854h6.583l-6.583-6.583z"></path>
<path preserve--fill="#dcddde" d="M23.528 31.729h-23.528v-28.598h16.945l6.583 6.583z"></path>
<path preserve--fill="#4c5b6b" d="M2.338 8.715h13.072v0.999h-13.072v-0.999z"></path>
<path preserve--fill="#a4a9ad" d="M2.338 12.982h18.852v0.999h-18.852v-0.999z"></path>
<path preserve--fill="#a4a9ad" d="M2.338 15.342h15.977v0.999h-15.977v-0.999z"></path>
<path preserve--fill="#a4a9ad" d="M2.338 17.702h18.852v0.999h-18.852v-0.999z"></path>
<path preserve--fill="#a4a9ad" d="M2.338 20.062h15.977v0.999h-15.977v-0.999z"></path>
<path preserve--fill="#a4a9ad" d="M2.338 22.422h18.852v0.999h-18.852v-0.999z"></path>
<path preserve--fill="#a4a9ad" d="M2.338 24.782h15.977v0.999h-15.977v-0.999z"></path>
<path preserve--fill="#a4a9ad" d="M2.338 27.142h18.852v0.999h-18.852v-0.999z"></path>
<path preserve--fill="#c6c8cb" d="M16.945 9.714h6.583l-6.583-6.583z"></path>
</svg>
