<?xml version="1.0" encoding="utf-8"?>
<!-- Generated by IcoMoon.io -->
<!DOCTYPE svg PUBLIC "-//W3C//DTD SVG 1.1//EN" "http://www.w3.org/Graphics/SVG/1.1/DTD/svg11.dtd">
<svg version="1.1" xmlns="http://www.w3.org/2000/svg" xmlns:xlink="http://www.w3.org/1999/xlink" width="32" height="32" viewBox="0 0 32 32">
<path preserve--fill="#d75a4a" d="M32 16c0 8.837-7.163 16-16 16s-16-7.163-16-16c0-8.837 7.163-16 16-16s16 7.163 16 16z"></path>
<path preserve--fill="#fff" d="M10.24 22.4c-0.192 0-0.32-0.064-0.448-0.192-0.256-0.256-0.256-0.64 0-0.896l11.52-11.52c0.256-0.256 0.64-0.256 0.896 0s0.256 0.64 0 0.896l-11.52 11.52c-0.128 0.128-0.256 0.192-0.448 0.192z"></path>
<path preserve--fill="#fff" d="M21.76 22.4c-0.192 0-0.32-0.064-0.448-0.192l-11.52-11.52c-0.256-0.256-0.256-0.64 0-0.896s0.64-0.256 0.896 0l11.52 11.52c0.256 0.256 0.256 0.64 0 0.896-0.128 0.128-0.256 0.192-0.448 0.192z"></path>
</svg>
