<?xml version="1.0" encoding="utf-8"?>
<!-- Generated by IcoMoon.io -->
<!DOCTYPE svg PUBLIC "-//W3C//DTD SVG 1.1//EN" "http://www.w3.org/Graphics/SVG/1.1/DTD/svg11.dtd">
<svg version="1.1" xmlns="http://www.w3.org/2000/svg" xmlns:xlink="http://www.w3.org/1999/xlink" width="32" height="32" viewBox="0 0 32 32">
<path preserve--fill="#4b6daa" d="M0.857 11.429h8v20.571h-8v-20.571z"></path>
<path preserve--fill="#d8a852" d="M7.143 26.857c0 1.262-1.023 2.286-2.286 2.286s-2.286-1.023-2.286-2.286c0-1.262 1.023-2.286 2.286-2.286s2.286 1.023 2.286 2.286z"></path>
<path preserve--fill="#fbce9d" d="M30.571 14.857c0-1.262-1.023-2.286-2.286-2.286h-8.915l0.565-2.639c0.431-2.014 0.315-4.468 0.059-6.192s-1.8-3.74-3.415-3.74h-0.137c-1.377 0-1.871 1.519-1.871 3.429 0 9.286-4.571 9.143-4.571 9.143h-1.143v18.286h16.571c1.262 0 2.286-1.023 2.286-2.286s-1.023-2.286-2.286-2.286h1.714c1.262 0 2.286-1.023 2.286-2.286s-1.023-2.286-2.286-2.286h1.714c1.262 0 2.286-1.023 2.286-2.286 0-1.425-0.922-1.967-2.286-2.169-0.665-0.099-1.872-0.117-2.286-0.117h1.714c1.262 0 2.286-1.023 2.286-2.286z"></path>
<path preserve--fill="#f7b563" d="M29.783 16.571h-7.211c-0.315 0-0.571 0.255-0.571 0.571s0.256 0.571 0.571 0.571h7.689c-0.375-0.23-0.85-0.373-1.403-0.455-0.665-0.099-1.872-0.117-2.286-0.117h1.714c0.576 0 1.095-0.22 1.497-0.571z"></path>
<path preserve--fill="#f7b563" d="M30.354 21.143h-7.783c-0.315 0-0.571 0.255-0.571 0.571s0.256 0.571 0.571 0.571h6.069c-0.402-0.351-0.922-0.571-1.498-0.571h1.714c0.576 0 1.095-0.22 1.497-0.571z"></path>
<path preserve--fill="#f7b563" d="M28.64 25.714h-7.211c-0.315 0-0.571 0.255-0.571 0.571s0.256 0.571 0.571 0.571h5.498c-0.402-0.351-0.922-0.571-1.498-0.571h1.714c0.576 0 1.095-0.22 1.497-0.571z"></path>
</svg>
