<?xml version="1.0" encoding="utf-8"?>
<!-- Generated by IcoMoon.io -->
<!DOCTYPE svg PUBLIC "-//W3C//DTD SVG 1.1//EN" "http://www.w3.org/Graphics/SVG/1.1/DTD/svg11.dtd">
<svg version="1.1" xmlns="http://www.w3.org/2000/svg" xmlns:xlink="http://www.w3.org/1999/xlink" width="32" height="32" viewBox="0 0 32 32">
<path fill="#000" d="M19.905 18.212c0 0.286 0.232 0.518 0.518 0.518s0.518-0.232 0.518-0.518c0-1.461-1.368-2.67-3.317-3.107v-0.763c0-0.286-0.232-0.518-0.518-0.518s-0.518 0.232-0.518 0.518v0.61c-0.192-0.014-0.388-0.023-0.587-0.023s-0.395 0.008-0.587 0.023v-0.61c0-0.286-0.232-0.518-0.518-0.518s-0.518 0.232-0.518 0.518v0.763c-1.95 0.437-3.317 1.646-3.317 3.107s1.368 2.67 3.317 3.107v4.457c-1.332-0.362-2.281-1.148-2.281-2.034 0-0.286-0.232-0.518-0.518-0.518s-0.518 0.232-0.518 0.518c0 1.461 1.368 2.67 3.317 3.107v0.763c0 0.286 0.232 0.518 0.518 0.518s0.518-0.232 0.518-0.518v-0.61c0.192 0.015 0.388 0.023 0.587 0.023s0.395-0.008 0.587-0.023v0.61c0 0.286 0.232 0.518 0.518 0.518s0.518-0.232 0.518-0.518v-0.763c1.95-0.437 3.317-1.646 3.317-3.107s-1.368-2.67-3.317-3.107v-4.457c1.332 0.362 2.281 1.148 2.281 2.034zM12.095 18.212c0-0.886 0.948-1.672 2.281-2.034v4.069c-1.332-0.362-2.281-1.148-2.281-2.034zM16 25.987c-0.199 0-0.395-0.009-0.587-0.027v-4.489c0.192 0.015 0.388 0.023 0.587 0.023s0.395 0.009 0.587 0.027v4.439c-0.192 0.017-0.388 0.027-0.587 0.027zM19.905 23.741c0 0.886-0.948 1.672-2.281 2.034v-4.069c1.332 0.362 2.281 1.148 2.281 2.034zM16.587 20.481c-0.192-0.015-0.388-0.023-0.587-0.023s-0.395-0.009-0.587-0.027v-4.439c0.192-0.018 0.388-0.027 0.587-0.027s0.395 0.009 0.587 0.027v4.489z"></path>
<path fill="#000" d="M19.406 8.252c0.267-0.289 0.43-0.676 0.43-1.099 0-0.771-0.54-1.417-1.261-1.583 0.774-0.702 1.261-1.716 1.261-2.841v-1.659c0-0.591-0.481-1.071-1.071-1.071h-5.529c-0.591 0-1.071 0.481-1.071 1.071v1.659c0 1.125 0.487 2.138 1.261 2.841-0.721 0.166-1.261 0.812-1.261 1.583 0 0.424 0.163 0.81 0.43 1.099-4.726 1.458-8.171 5.867-8.171 11.065v7.741c0 2.725 2.217 4.942 4.942 4.942h13.27c2.725 0 4.942-2.217 4.942-4.942v-7.741c0-5.198-3.444-9.607-8.171-11.065zM13.201 2.73v-1.659c0-0.019 0.015-0.035 0.035-0.035h5.529c0.019 0 0.035 0.015 0.035 0.035v1.659c0 1.366-0.984 2.506-2.281 2.75v-1.644c0-0.286-0.232-0.518-0.518-0.518s-0.518 0.232-0.518 0.518v1.644c-1.297-0.244-2.281-1.384-2.281-2.75zM13.788 7.741c-0.324 0-0.587-0.264-0.587-0.587s0.264-0.587 0.587-0.587h4.423c0.324 0 0.587 0.264 0.587 0.587s-0.264 0.587-0.587 0.587h-4.423zM26.54 27.058c0 2.153-1.752 3.905-3.905 3.905h-13.27c-2.153 0-3.905-1.752-3.905-3.905v-7.741c0-5.638 4.45-10.256 10.022-10.527v1.68c0 0.286 0.232 0.518 0.518 0.518s0.518-0.232 0.518-0.518v-1.68c5.572 0.271 10.022 4.889 10.022 10.527v7.741z"></path>
</svg>
