<?xml version="1.0" encoding="utf-8"?>
<!-- Generated by IcoMoon.io -->
<!DOCTYPE svg PUBLIC "-//W3C//DTD SVG 1.1//EN" "http://www.w3.org/Graphics/SVG/1.1/DTD/svg11.dtd">
<svg version="1.1" xmlns="http://www.w3.org/2000/svg" xmlns:xlink="http://www.w3.org/1999/xlink" width="32" height="32" viewBox="0 0 32 32">
<path fill="#000" d="M30.897 19.618l-1.565-1.565c-0.619-0.619-1.699-0.619-2.319 0l-8.452 8.452-1.165 4.272-0.285 0.285c-0.213 0.213-0.214 0.557-0.003 0.772l-0.003 0.011 0.010-0.003c0.107 0.104 0.245 0.158 0.384 0.158 0.141 0 0.281-0.054 0.388-0.161l0.286-0.286 4.271-1.165 8.452-8.452c0.639-0.64 0.639-1.679 0-2.319zM19.829 26.791l5.625-5.625 2.33 2.33-5.625 5.625-2.33-2.33zM19.334 27.848l1.768 1.768-2.432 0.663 0.663-2.432zM30.12 21.16l-1.559 1.559-2.33-2.33 1.559-1.559c0.204-0.205 0.561-0.205 0.765 0l1.565 1.565c0.211 0.21 0.211 0.554 0 0.765z"></path>
<path fill="#000" d="M4.467 19.77h14.278c0.303 0 0.549-0.245 0.549-0.549s-0.246-0.549-0.549-0.549h-14.278c-0.303 0-0.549 0.245-0.549 0.549s0.246 0.549 0.549 0.549z"></path>
<path fill="#000" d="M16.549 21.967h-12.082c-0.303 0-0.549 0.245-0.549 0.549s0.246 0.549 0.549 0.549h12.082c0.303 0 0.549-0.245 0.549-0.549s-0.245-0.549-0.549-0.549z"></path>
<path fill="#000" d="M4.467 9.885h7.139c0.303 0 0.549-0.245 0.549-0.549s-0.246-0.549-0.549-0.549h-7.139c-0.303 0-0.549 0.245-0.549 0.549s0.246 0.549 0.549 0.549z"></path>
<path fill="#000" d="M11.607 26.36c0.303 0 0.549-0.245 0.549-0.549s-0.246-0.549-0.549-0.549h-7.139c-0.303 0-0.549 0.245-0.549 0.549s0.246 0.549 0.549 0.549h7.139z"></path>
<path fill="#000" d="M20.393 12.082h-15.926c-0.303 0-0.549 0.245-0.549 0.549s0.246 0.549 0.549 0.549h15.926c0.303 0 0.549-0.245 0.549-0.549s-0.245-0.549-0.549-0.549z"></path>
<path fill="#000" d="M4.467 16.475h7.688c0.303 0 0.549-0.245 0.549-0.549s-0.246-0.549-0.549-0.549h-7.688c-0.303 0-0.549 0.245-0.549 0.549s0.246 0.549 0.549 0.549z"></path>
<path fill="#000" d="M20.942 15.926c0-0.304-0.246-0.549-0.549-0.549h-3.844c-0.303 0-0.549 0.245-0.549 0.549s0.246 0.549 0.549 0.549h3.844c0.304 0 0.549-0.245 0.549-0.549z"></path>
<path fill="#000" d="M14.742 16.315c0.099-0.104 0.159-0.247 0.159-0.39s-0.060-0.286-0.159-0.39c-0.209-0.203-0.577-0.203-0.78 0-0.099 0.104-0.159 0.247-0.159 0.39 0 0.149 0.060 0.286 0.159 0.39 0.104 0.099 0.247 0.159 0.39 0.159s0.286-0.060 0.39-0.159z"></path>
<path fill="#000" d="M14.352 30.753h-12.631v-26.36h3.844v1.098c0 0.304 0.246 0.549 0.549 0.549h12.631c0.303 0 0.549-0.245 0.549-0.549v-1.098h3.844v12.082c0 0.304 0.246 0.549 0.549 0.549s0.549-0.245 0.549-0.549v-12.631c0-0.304-0.246-0.549-0.549-0.549h-4.393v-1.098c0-0.304-0.246-0.549-0.549-0.549h-3.295v-1.098c0-0.304-0.246-0.549-0.549-0.549h-4.943c-0.303 0-0.549 0.245-0.549 0.549v1.098h-3.295c-0.303 0-0.549 0.245-0.549 0.549v1.098h-4.393c-0.303 0-0.549 0.245-0.549 0.549v27.458c0 0.304 0.246 0.549 0.549 0.549h13.18c0.303 0 0.549-0.245 0.549-0.549s-0.245-0.549-0.549-0.549zM10.508 1.098h3.844v2.197h-3.844v-2.197zM6.664 2.746h2.746v1.098c0 0.304 0.246 0.549 0.549 0.549h4.942c0.303 0 0.549-0.245 0.549-0.549v-1.098h2.746v2.197h-11.533v-2.197z"></path>
</svg>
