<?xml version="1.0" encoding="utf-8"?>
<!-- Generated by IcoMoon.io -->
<!DOCTYPE svg PUBLIC "-//W3C//DTD SVG 1.1//EN" "http://www.w3.org/Graphics/SVG/1.1/DTD/svg11.dtd">
<svg version="1.1" xmlns="http://www.w3.org/2000/svg" xmlns:xlink="http://www.w3.org/1999/xlink" width="32" height="32" viewBox="0 0 32 32">
<path fill="#000" d="M30.376 16.035h-0.634c-0.631-1.685-1.754-3.229-3.271-4.496v-4.385c0-0.286-0.232-0.518-0.518-0.518-1.739 0-3.314 0.894-4.21 2.361-0.952-0.298-1.932-0.501-2.93-0.61 0.308-0.736 0.47-1.536 0.47-2.339 0-3.335-2.713-6.048-6.048-6.048s-6.048 2.713-6.048 6.048c0 1.697 0.723 3.318 1.961 4.457-0.477 0.3-0.934 0.628-1.366 0.985-2.341 1.934-3.705 4.466-3.89 7.188-0.409-0.159-0.956-0.477-1.47-0.969-0.010-0.010-0.020-0.020-0.031-0.030 0.716-0.84 1.408-1.941 1.408-3.060 0-1.048-0.853-1.901-1.901-1.901s-1.901 0.853-1.901 1.901c0 1.194 0.413 2.216 1.001 3.031-0.441 0.43-0.792 0.7-0.797 0.704-0.228 0.174-0.271 0.499-0.098 0.727s0.499 0.272 0.726 0.098c0.041-0.031 0.397-0.305 0.848-0.743 0.725 0.704 1.552 1.16 2.201 1.328 0.163 3.387 2.183 6.521 5.493 8.505l-0.307 1.842c-0.079 0.472 0.054 0.952 0.363 1.317s0.761 0.574 1.239 0.574h1.075c0.797 0 1.471-0.571 1.602-1.357l0.121-0.726c1.184 0.282 2.404 0.424 3.637 0.424 1.231 0 2.452-0.143 3.637-0.425l0.121 0.727c0.131 0.786 0.805 1.357 1.602 1.357h1.075c0.478 0 0.93-0.209 1.239-0.574s0.441-0.845 0.363-1.317l-0.308-1.849c2.334-1.401 4.058-3.39 4.907-5.66h0.634c0.896 0 1.624-0.729 1.624-1.624v-3.317c-0-0.896-0.729-1.624-1.624-1.624zM1.037 14.618c0-0.476 0.388-0.864 0.864-0.864s0.864 0.388 0.864 0.864c0 0.643-0.36 1.417-1.044 2.251-0.382-0.58-0.684-1.33-0.684-2.251zM8.225 6.048c0-2.763 2.248-5.011 5.011-5.011s5.011 2.248 5.011 5.011c0 0.795-0.181 1.554-0.537 2.258-0.201-0.008-0.402-0.012-0.604-0.012-0.499 0-0.993 0.024-1.481 0.069 0.217-0.274 0.341-0.591 0.341-0.933 0-0.942-0.937-1.703-2.212-1.867v-1.716c0.698 0.125 1.175 0.488 1.175 0.819 0 0.286 0.232 0.518 0.518 0.518s0.518-0.232 0.518-0.518c0-0.942-0.937-1.703-2.212-1.867v-0.068c0-0.286-0.232-0.518-0.518-0.518s-0.518 0.232-0.518 0.518v0.068c-1.275 0.164-2.212 0.925-2.212 1.867s0.937 1.703 2.212 1.867v1.716c-0.698-0.125-1.175-0.488-1.175-0.819 0-0.286-0.232-0.518-0.518-0.518s-0.518 0.232-0.518 0.518c0 0.758 0.607 1.399 1.508 1.706-0.661 0.229-1.3 0.504-1.911 0.822-1.18-0.947-1.878-2.392-1.878-3.91zM12.717 5.484c-0.698-0.125-1.175-0.488-1.175-0.819s0.477-0.694 1.175-0.819v1.637zM13.754 8.249v-1.637c0.698 0.125 1.175 0.488 1.175 0.819s-0.477 0.694-1.175 0.819zM30.963 20.976c0 0.324-0.264 0.587-0.587 0.587h-1.001c-0.224 0-0.422 0.144-0.492 0.356-0.749 2.274-2.479 4.27-4.872 5.621-0.19 0.107-0.292 0.322-0.256 0.537l0.367 2.202c0.029 0.173-0.018 0.342-0.131 0.476s-0.273 0.208-0.448 0.208h-1.075c-0.288 0-0.532-0.206-0.579-0.491l-0.214-1.285c-0.024-0.145-0.109-0.273-0.233-0.352-0.084-0.054-0.181-0.081-0.279-0.081-0.046 0-0.093 0.006-0.139 0.019-1.267 0.352-2.585 0.531-3.916 0.531-1.334 0-2.651-0.178-3.917-0.53-0.142-0.039-0.293-0.017-0.417 0.062s-0.209 0.207-0.233 0.352l-0.214 1.284c-0.047 0.284-0.291 0.491-0.579 0.491h-1.075c-0.176 0-0.335-0.074-0.448-0.208s-0.16-0.303-0.131-0.476l0.366-2.195c0.036-0.215-0.067-0.43-0.257-0.537-3.314-1.869-5.293-4.946-5.293-8.23 0-5.507 5.472-9.987 12.199-9.987 1.621 0 3.207 0.263 4.714 0.782 0.247 0.085 0.518-0.027 0.634-0.261 0.587-1.187 1.7-1.977 2.981-2.146v4.078c0 0.157 0.071 0.306 0.194 0.404 1.567 1.257 2.693 2.822 3.254 4.527 0.070 0.213 0.269 0.356 0.492 0.356h1.001c0.324 0 0.587 0.264 0.587 0.587v3.318z"></path>
<path fill="#000" d="M25.4 15.482c-0.286 0-0.518 0.232-0.518 0.518v1.106c0 0.286 0.232 0.518 0.518 0.518s0.518-0.232 0.518-0.518v-1.106c0-0.286-0.232-0.518-0.518-0.518z"></path>
</svg>
