<?xml version="1.0" encoding="utf-8"?>
<!-- Generated by IcoMoon.io -->
<!DOCTYPE svg PUBLIC "-//W3C//DTD SVG 1.1//EN" "http://www.w3.org/Graphics/SVG/1.1/DTD/svg11.dtd">
<svg version="1.1" xmlns="http://www.w3.org/2000/svg" xmlns:xlink="http://www.w3.org/1999/xlink" width="32" height="32" viewBox="0 0 32 32">
<path preserve--fill="#4c4031" d="M18.097 10.041c-0.717 0-1.434-0.276-1.931-0.828-0.221-0.221-0.221-0.552 0-0.772s0.552-0.221 0.772 0c0.662 0.662 1.71 0.662 2.317 0 0.221-0.221 0.552-0.221 0.772 0s0.221 0.552 0 0.772c-0.497 0.552-1.214 0.828-1.931 0.828z"></path>
<path preserve--fill="#c7b6a1" d="M21.517 21.903v0 0-2.207c0-0.441 1.434-1.269 3.421-1.6-0.717-1.49-1.766-2.869-3.145-3.917l-3.972-2.703c-0.221-0.166-0.441-0.331-0.662-0.441-0.331-0.938-0.497-1.876-0.607-2.869l-0.276-2.648c0-0.221 0-0.497 0-0.717 0.055-0.276 0.055-0.717 0.11-0.772 0.055-0.11 0.055-0.221 0.11-0.331 0.221-0.441 0.497-0.938 0.772-1.269 0.11-0.11 0.221-0.221 0.331-0.331 0.662-0.552 0.497-1.545-0.331-1.821-0.441-0.166-0.883-0.276-1.379-0.276-0.055 0-0.11 0-0.166 0-0.11 0-0.221 0-0.331 0-0.662 0.055-1.269 0.221-1.876 0.717-0.221 0.166-0.441 0.221-0.662 0.221s-0.497-0.055-0.662-0.221c-0.717-0.607-1.545-0.772-2.372-0.717-0.497 0-0.938 0.11-1.379 0.276-0.772 0.276-0.938 1.269-0.331 1.821 0.055 0.055 0.166 0.11 0.221 0.221 0 0 0.055 0.055 0.055 0.055 0.11 0.11 0.166 0.221 0.276 0.331 0.331 0.441 0.552 0.938 0.662 1.324 0.055 0.11 0.055 0.717 0.11 1.048 0.055 0.221 0.055 0.386 0.055 0.607v1.931c0 1.103-0.166 2.262-0.386 3.31-0.276 0.11-0.497 0.276-0.772 0.441l-3.862 2.814c-3.807 3.034-5.131 8.331-2.924 12.634 0.938 1.821 2.207 3.366 3.697 3.476 0.166 0 0.276 0 0.441 0h10.979c-0.11-0.221-0.276-0.497-0.441-0.772 0.055 0 0.055 0 0.11 0 3.586-0.221 5.903-2.483 5.131-5.683l0.055-1.931z"></path>
<path preserve--fill="#d19d18" d="M26.483 22.952c-2.759 0-4.966-0.497-4.966-1.048v2.207c0 0.607 2.207 1.048 4.966 1.048s4.966-0.497 4.966-1.048v-2.207c0 0.552-2.207 1.048-4.966 1.048z"></path>
<path preserve--fill="#d19d18" d="M21.517 21.903v0 0z"></path>
<path preserve--fill="#d19d18" d="M31.448 21.903v0 0z"></path>
<path preserve--fill="#fcc62d" d="M31.448 19.697c0 0.607-2.207 1.048-4.966 1.048s-4.966-0.497-4.966-1.048c0-0.607 2.207-1.71 4.966-1.71s4.966 1.103 4.966 1.71z"></path>
<path preserve--fill="#e4af18" d="M26.483 20.745c-2.759 0-4.966-0.497-4.966-1.048v2.207c0 0.607 2.207 1.048 4.966 1.048s4.966-0.497 4.966-1.048v-2.207c0 0.552-2.207 1.048-4.966 1.048z"></path>
<path preserve--fill="#e4af18" d="M21.517 19.697v0 0z"></path>
<path preserve--fill="#e4af18" d="M31.448 19.697v0 0z"></path>
<path preserve--fill="#6b5b46" d="M16.552 9.379h-7.172c-0.331 0-0.552-0.221-0.552-0.552s0.221-0.552 0.552-0.552h7.172c0.331 0 0.552 0.221 0.552 0.552s-0.221 0.552-0.552 0.552z"></path>
<path preserve--fill="#6b5b46" d="M16.552 7.724h-7.172c-0.331 0-0.552-0.221-0.552-0.552s0.221-0.552 0.552-0.552h7.172c0.331 0 0.552 0.221 0.552 0.552s-0.221 0.552-0.552 0.552z"></path>
<path preserve--fill="#6b5b46" d="M16.552 6.069h-7.172c-0.331 0-0.552-0.221-0.552-0.552s0.221-0.552 0.552-0.552h7.172c0.331 0 0.552 0.221 0.552 0.552s-0.221 0.552-0.552 0.552z"></path>
<path preserve--fill="#e4af18" d="M26.483 29.572c-1.103 0-2.152-0.055-2.979-0.221-0.276 0.772-0.717 1.434-1.379 1.876 0.828 0.331 2.483 0.552 4.303 0.552 2.759 0 4.966-0.497 4.966-1.048v-2.207c0.055 0.552-2.152 1.048-4.91 1.048z"></path>
<path preserve--fill="#e4af18" d="M26.483 25.159c-2.759 0-4.966-0.497-4.966-1.048v0.552c0.993 0.497 1.766 1.379 2.097 2.538 0.828 0.11 1.821 0.221 2.869 0.221 2.759 0 4.966-0.497 4.966-1.048v-2.207c0 0.497-2.207 0.993-4.966 0.993z"></path>
<path preserve--fill="#d19d18" d="M26.483 27.366c-1.103 0-2.097-0.055-2.869-0.221 0.055 0.331 0.11 0.662 0.11 0.993 0 0.441-0.055 0.828-0.221 1.214 0.828 0.11 1.876 0.221 2.979 0.221 2.759 0 4.966-0.497 4.966-1.048v-2.207c0 0.552-2.207 1.048-4.966 1.048z"></path>
<path preserve--fill="#fcc62d" d="M23.724 28.138c0 2.152-1.71 3.862-3.862 3.862s-3.862-1.71-3.862-3.862 1.71-3.862 3.862-3.862c2.152 0 3.862 1.71 3.862 3.862z"></path>
<path preserve--fill="#dbccba" d="M4.414 22.621c-0.331 0-0.552-0.221-0.552-0.552 0-3.807 4.193-8.276 7.724-8.276 0.331 0 0.552 0.221 0.552 0.552s-0.221 0.552-0.552 0.552c-2.924 0-6.621 4.028-6.621 7.172 0 0.331-0.221 0.552-0.552 0.552z"></path>
</svg>
