<?xml version="1.0" encoding="utf-8"?>
<!-- Generated by IcoMoon.io -->
<!DOCTYPE svg PUBLIC "-//W3C//DTD SVG 1.1//EN" "http://www.w3.org/Graphics/SVG/1.1/DTD/svg11.dtd">
<svg version="1.1" xmlns="http://www.w3.org/2000/svg" xmlns:xlink="http://www.w3.org/1999/xlink" width="32" height="32" viewBox="0 0 32 32">
<path fill="#000" d="M23.394 6.579l0.583-1.010 0.495 0.286c0.247 0.143 0.527 0.218 0.811 0.218 0.579 0 1.119-0.311 1.408-0.812 0.217-0.376 0.275-0.813 0.162-1.232s-0.381-0.769-0.757-0.986l-1.915-1.105c-0.375-0.217-0.813-0.275-1.232-0.163s-0.77 0.381-0.988 0.757c-0.448 0.776-0.181 1.771 0.594 2.219l0.523 0.302-0.58 1.004c-1.794-0.963-3.825-1.54-5.981-1.621v-1.186h1.693c0.896 0 1.624-0.729 1.624-1.624s-0.729-1.624-1.624-1.624h-4.423c-0.896 0-1.624 0.729-1.624 1.624s0.729 1.624 1.624 1.624h1.693v1.186c-7.364 0.274-13.27 6.348-13.27 13.778 0 7.603 6.185 13.788 13.788 13.788s13.788-6.185 13.788-13.788c0-4.884-2.553-9.183-6.394-11.633zM22.802 3.494c-0.041-0.152-0.020-0.31 0.059-0.446s0.206-0.234 0.357-0.274c0.050-0.013 0.101-0.020 0.152-0.020 0.102 0 0.202 0.027 0.293 0.079l1.915 1.106c0.136 0.078 0.233 0.205 0.274 0.357s0.020 0.31-0.059 0.446c-0.105 0.181-0.3 0.294-0.51 0.294-0.104 0-0.202-0.027-0.293-0.079l-1.915-1.106c-0.136-0.078-0.233-0.205-0.274-0.357zM13.201 1.624c0-0.324 0.264-0.587 0.587-0.587h4.423c0.324 0 0.587 0.264 0.587 0.587s-0.264 0.587-0.587 0.587h-4.423c-0.324 0-0.587-0.264-0.587-0.587zM16 30.963c-7.031 0-12.752-5.72-12.752-12.752s5.72-12.752 12.752-12.752 12.752 5.72 12.752 12.752-5.72 12.752-12.752 12.752z"></path>
<path fill="#000" d="M16 6.635c-6.383 0-11.577 5.193-11.577 11.577s5.193 11.577 11.577 11.577 11.577-5.193 11.577-11.577-5.193-11.577-11.577-11.577zM16 28.752c-5.812 0-10.54-4.728-10.54-10.54s4.728-10.54 10.54-10.54 10.54 4.728 10.54 10.54-4.728 10.54-10.54 10.54z"></path>
<path fill="#000" d="M16 9.952c-0.286 0-0.518 0.232-0.518 0.518s0.232 0.518 0.518 0.518c3.983 0 7.222 3.24 7.222 7.222s-3.24 7.222-7.222 7.222c-3.808 0-6.937-2.963-7.204-6.704h5.089c0.233 0.951 1.092 1.659 2.114 1.659s1.881-0.708 2.114-1.659h1.203c0.286 0 0.518-0.232 0.518-0.518s-0.232-0.518-0.518-0.518h-1.203c-0.233-0.951-1.092-1.659-2.114-1.659s-1.881 0.708-2.114 1.659h-6.732c-0.286 0-0.518 0.232-0.518 0.518s0.232 0.518 0.518 0.518h0.604c0.269 4.314 3.862 7.741 8.242 7.741 4.554 0 8.259-3.705 8.259-8.259s-3.705-8.259-8.259-8.259zM16 17.071c0.629 0 1.14 0.512 1.14 1.14s-0.512 1.14-1.14 1.14-1.14-0.512-1.14-1.14 0.512-1.14 1.14-1.14z"></path>
</svg>
