<?xml version="1.0" encoding="utf-8"?>
<!-- Generated by IcoMoon.io -->
<!DOCTYPE svg PUBLIC "-//W3C//DTD SVG 1.1//EN" "http://www.w3.org/Graphics/SVG/1.1/DTD/svg11.dtd">
<svg version="1.1" xmlns="http://www.w3.org/2000/svg" xmlns:xlink="http://www.w3.org/1999/xlink" width="32" height="32" viewBox="0 0 32 32">
<path preserve--fill="#4e9758" d="M32 16c0 8.837-7.163 16-16 16s-16-7.163-16-16c0-8.837 7.163-16 16-16s16 7.163 16 16z"></path>
<path preserve--fill="#fff" d="M14.080 21.76c-0.128 0-0.256-0.064-0.384-0.128l-6.4-5.12c-0.256-0.192-0.32-0.64-0.128-0.896s0.64-0.32 0.896-0.128l5.952 4.736 9.856-11.072c0.256-0.256 0.64-0.32 0.896-0.064s0.32 0.64 0.064 0.896l-10.24 11.52c-0.128 0.192-0.32 0.256-0.512 0.256z"></path>
</svg>
