<?xml version="1.0" encoding="utf-8"?>
<!-- Generated by IcoMoon.io -->
<!DOCTYPE svg PUBLIC "-//W3C//DTD SVG 1.1//EN" "http://www.w3.org/Graphics/SVG/1.1/DTD/svg11.dtd">
<svg version="1.1" xmlns="http://www.w3.org/2000/svg" xmlns:xlink="http://www.w3.org/1999/xlink" width="32" height="32" viewBox="0 0 32 32">
<path fill="#000" d="M27.4 1.9h-22.8c-2.5 0-4.6 2.1-4.6 4.6v13.9c0 2.6 2.1 4.6 4.6 4.6h2v4.1c0 0.3 0.2 0.6 0.5 0.8 0.1 0.1 0.3 0.1 0.4 0.1 0.2 0 0.4-0.1 0.5-0.2l6.7-4.9h12.6c2.6 0 4.6-2.1 4.6-4.6v-13.8c0.1-2.5-2-4.6-4.5-4.6v0zM30.2 20.4c0 1.6-1.3 2.8-2.8 2.8h-12.9c-0.2 0-0.4 0.1-0.5 0.2l-5.5 4v-3.3c0-0.2-0.1-0.5-0.3-0.6s-0.4-0.3-0.6-0.3h-3c-1.6 0-2.8-1.3-2.8-2.8v-13.9c0-1.6 1.3-2.8 2.8-2.8h22.7c1.6 0 2.8 1.3 2.8 2.8l0.1 13.9z"></path>
<path fill="#000" d="M6.8 18.3v-7.5h-2.2c-0.3 0-0.4-0.2-0.4-0.7v-0.5c0-0.5 0.1-0.7 0.4-0.7h6.6c0.3 0 0.4 0.2 0.4 0.7v0.4c0 0.5-0.1 0.7-0.4 0.7h-2.2v7.5c0 0.3-0.3 0.4-0.8 0.4h-0.5c-0.6 0.2-0.9 0-0.9-0.3z"></path>
<path fill="#000" d="M11.8 18.5c0-0.1 0-0.2 0.1-0.3l2.9-4.5-2.6-4.1c-0.1-0.2-0.1-0.3-0.1-0.3 0-0.2 0.3-0.3 0.9-0.3h0.6c0.5 0 0.7 0.1 0.8 0.3l1.6 2.6 1.7-2.6c0.1-0.2 0.4-0.3 0.9-0.3h0.5c0.6-0.1 0.9 0 0.9 0.2 0 0.1 0 0.2-0.1 0.3l-2.6 4.1 2.8 4.5c0.1 0.1 0.1 0.3 0.1 0.3 0 0.2-0.3 0.3-0.9 0.3h-0.5c-0.5 0-0.7-0.1-0.8-0.3l-1.9-3-1.9 3c-0.1 0.2-0.4 0.3-0.9 0.3h-0.5c-0.7 0.1-1 0-1-0.2z"></path>
<path fill="#000" d="M22.9 18.3v-7.5h-2.2c-0.3 0-0.4-0.2-0.4-0.7v-0.5c0-0.5 0.1-0.7 0.4-0.7h6.6c0.3 0 0.4 0.2 0.4 0.7v0.4c0 0.5-0.1 0.7-0.4 0.7h-2.2v7.5c0 0.3-0.3 0.4-0.8 0.4h-0.5c-0.6 0.2-0.9 0-0.9-0.3z"></path>
</svg>
