<?xml version="1.0" encoding="utf-8"?>
<!-- Generator: Adobe Illustrator 20.0.0, SVG Export Plug-In . SVG Version: 6.00 Build 0)  -->
<svg version="1.1" id="Calque_1" xmlns="http://www.w3.org/2000/svg" xmlns:xlink="http://www.w3.org/1999/xlink" x="0px" y="0px"
	 viewBox="0 0 221.7 53.7" style="enable-background:new 0 0 221.7 53.7;" xml:space="preserve">
<style type="text/css">
	.st0{fill:#424242;}
	.st1{fill:#4E9758;}
</style>
<path class="st0" d="M2,43.8c0,0.3,0.1,0.7,0.2,0.9c0.1,0.2,0.3,0.5,0.7,0.6c0.2,0.1,0.6,0.3,1,0.3c0.3,0.1,0.8,0.2,1.1,0.3
	c0.6,0.1,1.1,0.2,1.6,0.5c0.6,0.1,1,0.3,1.4,0.6c0.5,0.2,0.8,0.6,1,1c0.2,0.5,0.3,0.9,0.3,1.6s-0.1,1.3-0.5,1.7
	c-0.2,0.5-0.7,0.9-1.1,1.3c-0.5,0.3-1,0.6-1.7,0.7s-1.4,0.2-2.2,0.2c-0.3,0-0.7,0-1.1-0.1c-0.3,0-0.8-0.1-1.1-0.1
	c-0.3-0.1-0.7-0.1-0.9-0.2S0.2,52.9,0,52.9v-1.5c0.2,0.1,0.6,0.2,0.8,0.3c0.3,0.1,0.7,0.2,1,0.2s0.7,0.1,1,0.1s0.7,0.1,1,0.1
	c0.5,0,0.9,0,1.4-0.1s0.8-0.2,1.1-0.3c0.3-0.2,0.6-0.5,0.8-0.7c0.2-0.3,0.3-0.7,0.3-1.1c0-0.3-0.1-0.7-0.2-0.9
	c-0.2-0.2-0.5-0.5-0.7-0.6c-0.3-0.1-0.6-0.3-1-0.5c-0.3-0.1-0.8-0.2-1.1-0.3c-0.6-0.1-1.1-0.2-1.6-0.3c-0.6-0.1-1-0.3-1.4-0.6
	s-0.7-0.6-1-1c-0.2-0.5-0.3-0.9-0.3-1.6c0-0.7,0.1-1.3,0.3-1.7c0.2-0.5,0.6-0.9,1-1.1C1.9,41,2.3,40.7,3,40.6
	c0.6-0.1,1.3-0.2,1.8-0.2c0.8,0,1.5,0.1,2.1,0.2c0.7,0.1,1.3,0.3,1.8,0.6v1.5c-0.6-0.2-1.1-0.5-1.8-0.6c-0.6-0.1-1.3-0.2-2.1-0.2
	c-0.6,0-1,0-1.4,0.1c-0.3,0.1-0.7,0.2-1,0.5c-0.2,0.2-0.5,0.5-0.6,0.7C2,43.1,2,43.5,2,43.8z"/>
<path class="st0" d="M25.2,46.9c0,1-0.1,1.9-0.5,2.7s-0.8,1.5-1.4,2.2c-0.6,0.6-1.3,1-2.1,1.4c-0.8,0.3-1.7,0.5-2.7,0.5
	s-1.9-0.1-2.7-0.5c-0.8-0.4-1.5-0.8-2.1-1.4s-1-1.3-1.3-2.2c-0.3-0.8-0.5-1.7-0.5-2.7s0.1-1.9,0.5-2.7c0.3-0.8,0.8-1.5,1.4-2.2
	c0.6-0.6,1.3-1,2.1-1.4c0.8-0.3,1.7-0.5,2.7-0.5s1.9,0.1,2.7,0.5c0.8,0.3,1.5,0.8,2.1,1.4s1,1.3,1.3,2.2
	C25,44.9,25.2,45.8,25.2,46.9z M23.5,46.9c0-0.9-0.1-1.6-0.3-2.3s-0.6-1.3-1-1.7c-0.5-0.5-0.9-0.8-1.6-1c-0.6-0.2-1.3-0.3-1.9-0.3
	c-0.7,0-1.4,0.1-1.9,0.3c-0.6,0.2-1.1,0.6-1.6,1c-0.5,0.5-0.8,1-1,1.7c-0.2,0.7-0.3,1.5-0.3,2.3c0,0.9,0.1,1.6,0.3,2.3
	c0.2,0.7,0.6,1.3,1,1.7c0.5,0.5,0.9,0.8,1.6,1c0.6,0.2,1.3,0.3,1.9,0.3c0.7,0,1.4-0.1,1.9-0.3s1.1-0.6,1.5-1c0.5-0.5,0.8-1,1-1.7
	C23.2,48.5,23.5,47.7,23.5,46.9z"/>
<path class="st0" d="M30,40.4v11.5h6.8v1.4h-8.5V40.4H30z"/>
<path class="st0" d="M45,52.1c0.5,0,0.9,0,1.4-0.1c0.3-0.1,0.8-0.2,1-0.5c0.3-0.2,0.6-0.5,0.7-0.7c0.1-0.2,0.3-0.6,0.5-0.9
	c0.1-0.2,0.1-0.5,0.1-0.7s0-0.6,0-0.8v-8h1.7v8c0,0.3,0,0.6,0,0.9s-0.1,0.8-0.1,1c-0.1,0.5-0.3,0.9-0.6,1.4c-0.2,0.5-0.6,0.8-1,1
	c-0.5,0.3-0.9,0.6-1.6,0.7c-0.6,0.1-1.3,0.2-2.2,0.2c-0.8,0-1.5-0.1-2.1-0.2s-1.1-0.3-1.5-0.7c-0.5-0.2-0.8-0.6-1-1
	c-0.2-0.3-0.5-0.8-0.6-1.3c-0.1-0.3-0.2-0.7-0.2-1s-0.1-0.7-0.1-1v-8h1.7v8c0,0.3,0,0.6,0.1,0.9c0,0.3,0.1,0.6,0.2,0.8
	c0.2,0.6,0.7,1.1,1.3,1.5C43.3,52,44,52.1,45,52.1z"/>
<path class="st0" d="M59,53.3h-1.7V41.7h-4.7v-1.4h11.2v1.4h-4.7v11.5L59,53.3L59,53.3z"/>
<path class="st0" d="M66,53.3V40.4h1.7v13L66,53.3L66,53.3z"/>
<path class="st0" d="M83.9,46.9c0,1-0.1,1.9-0.5,2.7c-0.3,0.8-0.8,1.5-1.4,2.2c-0.6,0.6-1.3,1-2.1,1.4c-0.8,0.3-1.7,0.5-2.7,0.5
	s-1.9-0.1-2.7-0.5c-0.8-0.3-1.5-0.8-2.1-1.4s-1-1.3-1.3-2.2c-0.3-0.8-0.5-1.7-0.5-2.7s0.1-1.9,0.5-2.7c0.3-0.8,0.8-1.5,1.4-2.2
	c0.6-0.6,1.3-1,2.1-1.4c0.8-0.3,1.7-0.5,2.7-0.5s1.9,0.1,2.7,0.5c0.8,0.3,1.5,0.8,2.1,1.4s1,1.3,1.3,2.2
	C83.7,44.9,83.9,45.8,83.9,46.9z M82.2,46.9c0-0.9-0.1-1.6-0.3-2.3c-0.2-0.7-0.6-1.3-1-1.7c-0.5-0.5-0.9-0.8-1.6-1
	c-0.6-0.2-1.3-0.3-1.9-0.3c-0.7,0-1.4,0.1-1.9,0.3c-0.6,0.2-1.1,0.6-1.6,1c-0.5,0.5-0.8,1-1,1.7c-0.2,0.7-0.3,1.5-0.3,2.3
	c0,0.9,0.1,1.6,0.3,2.3c0.2,0.7,0.6,1.3,1,1.7c0.5,0.5,0.9,0.8,1.6,1s1.3,0.3,1.9,0.3c0.7,0,1.4-0.1,1.9-0.3c0.6-0.2,1.1-0.6,1.5-1
	c0.5-0.5,0.8-1,1-1.7C82.1,48.5,82.2,47.7,82.2,46.9z"/>
<path class="st0" d="M94.3,47.6c0.9,1.1,1.7,2.3,2.5,3.5h0.1c-0.1-1.3-0.1-2.5-0.1-3.9v-6.8h1.7v13h-1.7l-5.6-7.2
	c-0.9-1.3-1.8-2.4-2.5-3.5h-0.1c0.1,1.1,0.1,2.5,0.1,4.1v6.6H87v-13h1.7L94.3,47.6z"/>
<path class="st0" d="M108.8,53.3h-1.7V40.4h8.7v1.4H109V46h6v1.4h-6v5.9H108.8z"/>
<path class="st0" d="M118.3,53.3V40.4h1.7v13L118.3,53.3L118.3,53.3z"/>
<path class="st0" d="M131.2,47.6c0.9,1.1,1.7,2.3,2.6,3.5h0.1c-0.1-1.3-0.1-2.5-0.1-3.9v-6.8h1.8v13h-1.7l-5.7-7.2
	c-1-1.3-1.8-2.4-2.6-3.5h-0.1c0.1,1.1,0.1,2.5,0.1,4.1v6.6h-1.7v-13h1.7L131.2,47.6z"/>
<path class="st0" d="M137.7,53.3l5.9-13h1.5l5.9,13h-1.9l-1.7-3.9h-6l-1.7,3.9H137.7z M144.3,42.3c-0.7,1.6-1.3,3.1-1.8,4.4
	l-0.6,1.3h4.8l-0.6-1.3C145.6,45.4,145,43.9,144.3,42.3L144.3,42.3z"/>
<path class="st0" d="M160.7,47.6c0.9,1.1,1.7,2.3,2.6,3.5h0.1c-0.1-1.3-0.1-2.5-0.1-3.9v-6.8h1.8v13h-1.7l-5.7-7.2
	c-1-1.3-1.8-2.4-2.6-3.5H155c0.1,1.1,0.1,2.5,0.1,4.1v6.6h-1.7v-13h1.7L160.7,47.6z"/>
<path class="st0" d="M175.6,41.5c-0.8,0-1.6,0.1-2.3,0.3c-0.7,0.2-1.4,0.6-1.8,1c-0.6,0.5-0.9,1-1.3,1.7s-0.5,1.5-0.5,2.4
	s0.1,1.7,0.5,2.3c0.2,0.7,0.7,1.1,1.1,1.6c0.5,0.5,1.1,0.8,1.8,0.9c0.7,0.2,1.5,0.3,2.4,0.3c0.2,0,0.5,0,0.8,0c0.2,0,0.6,0,0.8-0.1
	c0.2,0,0.6-0.1,0.8-0.1s0.5-0.1,0.7-0.2V53c-0.5,0.1-0.9,0.2-1.5,0.3c-0.6,0.1-1.1,0.1-1.7,0.1c-1.3,0-2.3-0.1-3.2-0.5
	c-0.9-0.3-1.7-0.7-2.4-1.3c-0.7-0.6-1.1-1.3-1.5-2.1s-0.5-1.7-0.5-2.7s0.2-1.9,0.6-2.7c0.3-0.8,0.8-1.6,1.5-2.2
	c0.7-0.6,1.5-1,2.4-1.4c0.9-0.3,1.9-0.5,3.1-0.5c0.3,0,0.6,0,0.9,0s0.6,0,0.8,0.1c0.2,0,0.6,0.1,0.8,0.1c0.2,0.1,0.5,0.1,0.6,0.2
	v1.4c-0.5-0.1-0.9-0.2-1.5-0.3C176.7,41.5,176.2,41.5,175.6,41.5z"/>
<path class="st0" d="M181.7,53.3V40.4h1.7v13L181.7,53.3L181.7,53.3z"/>
<path class="st0" d="M189,51.9h7.4v1.4h-9.2V40.4h8.8v1.4h-7.1V46h6.3v1.4h-6.3v4.5H189z"/>
<path class="st0" d="M201.2,47.9v5.4h-1.7V40.4h3.8c0.7,0,1.1,0,1.6,0.1c0.5,0,0.8,0.1,1.3,0.2c1,0.2,1.8,0.7,2.3,1.3
	c0.6,0.6,0.8,1.4,0.8,2.2c0,0.6-0.1,1-0.2,1.4s-0.5,0.8-0.8,1c-0.3,0.3-0.8,0.6-1.3,0.8c-0.5,0.2-1,0.3-1.6,0.5l0,0l4.3,5.6H208
	l-4.4-5.4h-2.3L201.2,47.9L201.2,47.9z M201.2,41.7v4.8h1.7c0.6,0,1,0,1.4,0s0.7-0.1,1-0.2c0.6-0.1,1.1-0.5,1.4-0.8
	c0.3-0.3,0.5-0.8,0.5-1.5c0-0.6-0.1-1-0.5-1.4c-0.3-0.3-0.7-0.6-1.3-0.7c-0.2-0.1-0.6-0.1-0.9-0.1s-0.8,0-1.4,0L201.2,41.7
	L201.2,41.7L201.2,41.7z"/>
<path class="st0" d="M214.3,51.9h7.4v1.4h-9.2V40.4h8.8v1.4h-7.1V46h6.3v1.4h-6.3v4.5H214.3z"/>
<rect x="65.9" y="38.2" class="st0" width="1.8" height="0.7"/>
<rect x="118.3" y="38.2" class="st0" width="1.8" height="0.7"/>
<rect x="181.7" y="38.2" class="st0" width="1.8" height="0.7"/>
<rect x="187.2" y="38.2" class="st0" width="8.8" height="0.7"/>
<path class="st0" d="M40,32.1V7h3.4v25.1H40z"/>
<path class="st0" d="M134.9,21.7v10.4h-3.4V7h7.1c1.2,0,2.2,0,3.1,0.1c0.8,0.1,1.6,0.2,2.3,0.4c1.9,0.5,3.4,1.3,4.4,2.4
	s1.5,2.6,1.5,4.3c0,1-0.2,1.9-0.5,2.7c-0.4,0.8-0.9,1.5-1.5,2.1s-1.4,1.1-2.3,1.4c-0.9,0.4-1.9,0.7-3,0.8v0.1l8.2,10.7h-3.4
	l-8.5-10.4h-4L134.9,21.7L134.9,21.7z M134.9,9.7v9.2h3.3c1,0,1.9,0,2.6-0.1c0.7-0.1,1.4-0.2,2-0.3c1.2-0.3,2.1-0.8,2.7-1.6
	c0.6-0.7,0.9-1.6,0.9-2.8c0-1.1-0.3-1.9-0.9-2.6c-0.6-0.7-1.4-1.1-2.5-1.4c-0.5-0.1-1.1-0.2-1.8-0.3c-0.7-0.1-1.6-0.1-2.6-0.1
	C138.6,9.7,134.9,9.7,134.9,9.7z"/>
<path class="st0" d="M107.3,32.2h-4.1V0h9.4c1.4,0,2.7,0.1,3.9,0.2c1.2,0.2,2.3,0.4,3.3,0.7c2,0.7,3.6,1.7,4.6,3.1s1.6,3.1,1.6,5.1
	c0,1.6-0.3,3.1-1,4.3s-1.7,2.3-3,3.1s-2.9,1.5-4.7,1.9c-1.9,0.4-4,0.6-6.3,0.6c-1.1,0-2.3,0-3.5-0.1v13.3
	C107.5,32.2,107.3,32.2,107.3,32.2z M107.3,15.4c0.6,0.1,1.1,0.1,1.7,0.1s1.2,0,1.7,0c1.9,0,3.6-0.1,5-0.4c1.4-0.3,2.5-0.7,3.3-1.3
	c0.9-0.6,1.5-1.2,1.9-2s0.6-1.7,0.6-2.7c0-1.3-0.3-2.3-1-3.1c-0.6-0.8-1.5-1.4-2.7-1.8c-0.7-0.3-1.6-0.4-2.5-0.5s-2-0.2-3.3-0.2
	h-4.7V15.4z"/>
<path class="st0" d="M159.9,29.4h13.6v2.8h-16.9V7h16.1v2.8h-12.9v8.1h11.5v2.8h-11.5L159.9,29.4L159.9,29.4z"/>
<path class="st0" d="M190.6,32.2h-3.3V9.8h-8.9V7h21v2.8h-8.9L190.6,32.2L190.6,32.2z"/>
<path class="st0" d="M207.9,13.9c0,0.7,0.2,1.3,0.5,1.8s0.7,0.8,1.2,1.1s1.1,0.5,1.8,0.7s1.4,0.4,2.1,0.5c1,0.2,2,0.5,3,0.8
	s1.8,0.7,2.6,1.1c0.8,0.5,1.4,1.1,1.8,1.9c0.5,0.8,0.7,1.8,0.7,3c0,1.3-0.3,2.3-0.8,3.2s-1.2,1.7-2.1,2.2c-0.9,0.6-2,1-3.2,1.3
	s-2.6,0.4-4,0.4c-0.7,0-1.4,0-2.1-0.1c-0.7-0.1-1.4-0.2-2-0.3s-1.2-0.3-1.7-0.5s-0.9-0.3-1.2-0.5v-2.7c0.5,0.2,1,0.4,1.6,0.6
	c0.6,0.2,1.2,0.3,1.8,0.5c0.6,0.1,1.2,0.2,1.9,0.3c0.6,0.1,1.2,0.1,1.8,0.1c0.9,0,1.8-0.1,2.6-0.2c0.8-0.1,1.5-0.4,2.1-0.7
	s1.1-0.8,1.5-1.4c0.4-0.6,0.5-1.3,0.5-2.2c0-0.7-0.2-1.3-0.5-1.8s-0.7-0.9-1.3-1.2c-0.5-0.3-1.1-0.6-1.8-0.8s-1.4-0.4-2.2-0.5
	c-1-0.2-2-0.5-2.9-0.7c-1-0.3-1.8-0.6-2.6-1.1s-1.4-1.1-1.8-1.9c-0.5-0.8-0.7-1.7-0.7-2.9s0.2-2.3,0.7-3.2c0.5-0.9,1.1-1.6,1.9-2.2
	c0.8-0.6,1.8-1,2.8-1.3c1.1-0.3,2.2-0.4,3.4-0.4c1.4,0,2.7,0.1,3.8,0.4c1.2,0.2,2.3,0.6,3.3,1v2.7c-1.1-0.4-2.2-0.8-3.3-1
	c-1.1-0.3-2.4-0.4-3.7-0.4c-1,0-1.8,0.1-2.5,0.3c-0.7,0.2-1.3,0.5-1.8,0.9s-0.8,0.8-1.1,1.3C208.1,12.6,207.9,13.2,207.9,13.9z"/>
<polygon class="st0" points="0.1,32.2 4.3,32.2 4.3,14.7 1.2,8 0.1,8 "/>
<polygon class="st0" points="29.8,32.2 33.9,32.2 33.9,0 27.9,0 21.6,14.3 25.7,14.3 29.8,4.7 "/>
<polygon class="st1" points="0.1,0 0.1,4.4 4.3,4.4 16,32.2 17.9,32.2 24,18 20,18 17,25.7 6,0 "/>
<rect x="156.6" y="1.8" class="st0" width="16.1" height="1.8"/>
<rect x="39.9" y="1.8" class="st0" width="3.4" height="1.8"/>
<rect x="85.8" y="17.7" class="st0" width="11.1" height="3.5"/>
<path class="st0" d="M49.6,32.1V6.9h3.6l13.7,19.8V6.9h3.3v25.2h-3.6L52.9,12.3v19.8H49.6z"/>
<path class="st0" d="M76.4,32.1V7h3.4v25.1H76.4z"/>
<rect x="76.4" y="1.8" class="st0" width="3.4" height="1.8"/>
</svg>
