<?xml version="1.0" encoding="utf-8"?>
<!-- Generator: Adobe Illustrator 21.1.0, SVG Export Plug-In . SVG Version: 6.00 Build 0)  -->
<svg version="1.1" id="Calque_1" xmlns="http://www.w3.org/2000/svg" xmlns:xlink="http://www.w3.org/1999/xlink" x="0px" y="0px"
	 viewBox="0 0 64 64" style="enable-background:new 0 0 64 64;" xml:space="preserve">
<style type="text/css">
	.st0{fill:url(#SVGID_1_);}
</style>
<g id="Square">
	
		<linearGradient id="SVGID_1_" gradientUnits="userSpaceOnUse" x1="32" y1="63.4231" x2="32" y2="4.4769" gradientTransform="matrix(1 0 0 -1 0 66)">
		<stop  offset="0" style="stop-color:#EECB77"/>
		<stop  offset="1" style="stop-color:#CA964B"/>
	</linearGradient>
	<path class="st0" d="M27.7,15h-1.8v-3.5h3.5V14l2.7,3.6L42.7,3.3h17.6V2.6h3.5V6h-3.5V5.3H43.7L32,20.8L27.7,15z M64,61.5
		L42.7,31.7l7.6-10h1.8v-3.4h-3.5v2.5l-8.3,11l20,27.9H43.8l-9.9-14.3v-2.8h-3.5V46H32l10.7,15.5L64,61.5L64,61.5z M36.6,31.7
		L54.5,8h-9.1L32,25.7L18.7,8H9.7l8.4,11.2v2.4h3.5v-3.4h-1.8L13.5,10h4.3L32,28.9L46.4,10h4.2L34.2,31.7l8.4,11.7V46H46v-3.5h-1.8
		L36.6,31.7z M54.3,57.6v-3.5h-3.5v0.8h-4.4L32,34.5L17.7,54.9h-4.3l15.2-21.4h1.8V30H27v2.5L9.7,56.8h9L32,37.9l13.3,18.9h5.4v0.8
		H54.3z M22.3,56.7l-2,2.9H3.8l20-27.9L3.9,5.3h15.2V6h3.5V2.6h-3.5v0.8H0l21.4,28.4L0.1,61.5h21.3l2.7-3.9h1.7v-3.5h-3.5L22.3,56.7
		L22.3,56.7z"/>
</g>
</svg>
