<?xml version="1.0" encoding="utf-8"?>
<!-- Generated by IcoMoon.io -->
<!DOCTYPE svg PUBLIC "-//W3C//DTD SVG 1.1//EN" "http://www.w3.org/Graphics/SVG/1.1/DTD/svg11.dtd">
<svg version="1.1" id="Calque_1" xmlns="http://www.w3.org/2000/svg" xmlns:xlink="http://www.w3.org/1999/xlink" x="0px" y="0px"
	 viewBox="0 0 32 32" enable-background="new 0 0 32 32" xml:space="preserve">
<path preserve--fill="#8DC5D6" d="M32,16c0,8.8-7.2,16-16,16S0,24.8,0,16S7.2,0,16,0S32,7.2,32,16z"/>
<path preserve--fill="#2E576D" d="M10,16.6c0,2.6-1.4,2.7-1.3,4.4c0.1,1.9,1.6,1.9,1.6,3.2s-1.4,2.8-0.2,4.2c5.4,0,5.9,0,5.9,0v-16
	C16,12.5,10,16.6,10,16.6z"/>
<path preserve--fill="#2E576D" d="M22,16.5c0,2.6,1.4,2.7,1.3,4.4c-0.1,1.9-1.6,1.9-1.6,3.2s1.4,2.8,0.2,4.2c-5.4,0-5.9,0-5.9,0v-16
	C16,12.4,22,16.5,22,16.5z"/>
<path preserve--fill="#2E576D" d="M22.5,13.9c0,3.6-2.9,6.6-6.6,6.6s-6.6-3-6.6-6.6s2.9-6.6,6.6-6.6S22.5,10.2,22.5,13.9z"/>
<path preserve--fill="#F1C9A5" d="M23.7,25.8L23.7,25.8c-1-2-7.7-3.2-7.7-3.2s-6.6,1.2-7.7,3.2C8,27,7.7,28.4,7.4,29.5C9.9,31.1,12.9,32,16,32
	c3.2,0,6.2-0.9,8.7-2.6C24.4,28.3,24.1,26.9,23.7,25.8z"/>
<path preserve--fill="#E4B692" d="M23.7,25.8c-1-2-7.7-3.2-7.7-3.2V32c3.2,0,6.2-0.9,8.6-2.6C24.4,28.3,24.1,26.9,23.7,25.8z"/>
<path preserve--fill="#F1C9A5" d="M14.2,18.7h3.6v6h-3.6C14.2,24.7,14.2,18.7,14.2,18.7z"/>
<path preserve--fill="#E4B692" d="M16,18.7h1.8v6H16V18.7z"/>
<path opacity="0.1" preserve--fill="#DDAC8C" enable-background="new    " d="M14.2,21.5c0.3,0.9,1.6,1.5,2.6,1.5c0.3,0,0.7-0.1,1-0.2v-4.1
	h-3.6C14.2,18.7,14.2,21.5,14.2,21.5z"/>
<path preserve--fill="#F1C9A5" d="M20.6,14.9c0-3.8-2.1-5.9-4.6-5.9s-4.6,2.1-4.6,5.9s2.1,6.8,4.6,6.8S20.6,18.7,20.6,14.9z"/>
<path preserve--fill="#E4B692" d="M19.9,17.5c-0.8-0.1-1.4-1.1-1.3-2.2s0.9-1.9,1.8-1.8s1.4,1.1,1.3,2.2C21.6,16.8,20.8,17.6,19.9,17.5z"/>
<path preserve--fill="#F1C9A5" d="M10.3,15.7c-0.1-1.1,0.4-2.1,1.3-2.2c0.8-0.1,1.6,0.7,1.8,1.8s-0.4,2.1-1.3,2.2
	C11.3,17.6,10.5,16.8,10.3,15.7z"/>
<path preserve--fill="#E4B692" d="M20.6,14.9c0-3.8-2.1-5.9-4.6-5.9v12.8C18.6,21.7,20.6,18.7,20.6,14.9z"/>
<path preserve--fill="#2E576D" d="M21,14.5C21,14.5,21,14.4,21,14.5c0-3-2-6.1-4.8-6.1s-5.3,3.1-5.3,6l0,0H21V14.5z"/>
<path preserve--fill="#FA582A" d="M23.7,25.8c-0.6-1.1-2.8-1.9-4.7-2.5l-3,2.4l-3.1-2.3c-1.9,0.6-4,1.4-4.6,2.4C8,27,7.7,28.4,7.4,29.5
	C9.9,31.1,12.8,32,16,32s6.2-0.9,8.6-2.6C24.4,28.3,24.1,26.9,23.7,25.8z"/>
</svg>
