<?xml version="1.0" encoding="utf-8"?>
<!-- Generated by IcoMoon.io -->
<!DOCTYPE svg PUBLIC "-//W3C//DTD SVG 1.1//EN" "http://www.w3.org/Graphics/SVG/1.1/DTD/svg11.dtd">
<svg version="1.1" xmlns="http://www.w3.org/2000/svg" xmlns:xlink="http://www.w3.org/1999/xlink" width="32" height="32" viewBox="0 0 32 32">
<path fill="#000" d="M29.27 1.659h-1.693v-0.587c0-0.286-0.232-0.518-0.518-0.518s-0.518 0.232-0.518 0.518v0.587h-1.728v-0.587c0-0.286-0.232-0.518-0.518-0.518s-0.518 0.232-0.518 0.518v0.587h-1.728v-0.587c0-0.286-0.232-0.518-0.518-0.518s-0.518 0.232-0.518 0.518v0.587h-1.728v-0.587c0-0.286-0.232-0.518-0.518-0.518s-0.518 0.232-0.518 0.518v0.587h-1.728v-0.587c0-0.286-0.232-0.518-0.518-0.518s-0.518 0.232-0.518 0.518v0.587h-1.728v-0.587c0-0.286-0.232-0.518-0.518-0.518s-0.518 0.232-0.518 0.518v0.587h-1.728v-0.587c0-0.286-0.232-0.518-0.518-0.518s-0.518 0.232-0.518 0.518v0.587h-1.728v-0.587c0-0.286-0.232-0.518-0.518-0.518s-0.518 0.232-0.518 0.518v0.587h-1.728v-0.587c0-0.286-0.232-0.518-0.518-0.518s-0.518 0.232-0.518 0.518v0.587h-1.693c-1.505 0-2.73 1.225-2.73 2.73v19.905c0 1.505 1.225 2.73 2.73 2.73h5.957c1.384 2.628 4.142 4.423 7.313 4.423s5.929-1.796 7.313-4.423h5.957c1.505 0 2.73-1.225 2.73-2.73v-19.905c0-1.505-1.225-2.73-2.73-2.73zM2.73 2.695h1.693v0.587c0 0.286 0.232 0.518 0.518 0.518s0.518-0.232 0.518-0.518v-0.587h1.728v0.587c0 0.286 0.232 0.518 0.518 0.518s0.518-0.232 0.518-0.518v-0.587h1.728v0.587c0 0.286 0.232 0.518 0.518 0.518s0.518-0.232 0.518-0.518v-0.587h1.728v0.587c0 0.286 0.232 0.518 0.518 0.518s0.518-0.232 0.518-0.518v-0.587h1.728v0.587c0 0.286 0.232 0.518 0.518 0.518s0.518-0.232 0.518-0.518v-0.587h1.728v0.587c0 0.286 0.232 0.518 0.518 0.518s0.518-0.232 0.518-0.518v-0.587h1.728v0.587c0 0.286 0.232 0.518 0.518 0.518s0.518-0.232 0.518-0.518v-0.587h1.728v0.587c0 0.286 0.232 0.518 0.518 0.518s0.518-0.232 0.518-0.518v-0.587h1.728v0.587c0 0.286 0.232 0.518 0.518 0.518s0.518-0.232 0.518-0.518v-0.587h1.693c0.934 0 1.693 0.76 1.693 1.693v0.587h-29.927v-0.587c0-0.934 0.76-1.693 1.693-1.693zM16.518 30.392v-1.122c0-0.286-0.232-0.518-0.518-0.518s-0.518 0.232-0.518 0.518v1.122c-3.57-0.254-6.431-3.115-6.685-6.685h1.122c0.286 0 0.518-0.232 0.518-0.518s-0.232-0.518-0.518-0.518h-1.122c0.254-3.57 3.115-6.431 6.685-6.685v1.122c0 0.286 0.232 0.518 0.518 0.518s0.518-0.232 0.518-0.518v-1.122c3.57 0.254 6.431 3.116 6.685 6.686-0.005-0-0.011-0.001-0.016-0.001h-1.106c-0.286 0-0.518 0.232-0.518 0.518s0.232 0.518 0.518 0.518h1.106c0.005 0 0.011-0.001 0.016-0.001-0.254 3.57-3.115 6.432-6.685 6.686zM29.27 25.987h-5.499c0.316-0.875 0.489-1.817 0.489-2.799 0-1.412-0.356-2.742-0.983-3.905h0.465c0.286 0 0.518-0.232 0.518-0.518s-0.232-0.518-0.518-0.518h-1.106c-0.007 0-0.014 0.001-0.020 0.001-1.508-2.013-3.912-3.319-6.615-3.319s-5.107 1.305-6.615 3.319c-0.007-0-0.014-0.001-0.020-0.001h-1.106c-0.286 0-0.518 0.232-0.518 0.518s0.232 0.518 0.518 0.518h0.465c-0.627 1.163-0.983 2.493-0.983 3.905 0 0.982 0.173 1.925 0.489 2.799h-5.499c-0.934 0-1.693-0.76-1.693-1.693v-18.281h29.927v18.281c0 0.934-0.76 1.693-1.693 1.693z"></path>
<path fill="#000" d="M10.471 12.717h-2.212c-0.286 0-0.518 0.232-0.518 0.518s0.232 0.518 0.518 0.518h2.212c0.286 0 0.518-0.232 0.518-0.518s-0.232-0.518-0.518-0.518z"></path>
<path fill="#000" d="M6.048 12.717h-2.212c-0.286 0-0.518 0.232-0.518 0.518s0.232 0.518 0.518 0.518h2.212c0.286 0 0.518-0.232 0.518-0.518s-0.232-0.518-0.518-0.518z"></path>
<path fill="#000" d="M14.894 12.717h-2.212c-0.286 0-0.518 0.232-0.518 0.518s0.232 0.518 0.518 0.518h2.212c0.286 0 0.518-0.232 0.518-0.518s-0.232-0.518-0.518-0.518z"></path>
<path fill="#000" d="M23.741 12.717h-2.212c-0.286 0-0.518 0.232-0.518 0.518s0.232 0.518 0.518 0.518h2.212c0.286 0 0.518-0.232 0.518-0.518s-0.232-0.518-0.518-0.518z"></path>
<path fill="#000" d="M28.164 12.717h-2.212c-0.286 0-0.518 0.232-0.518 0.518s0.232 0.518 0.518 0.518h2.212c0.286 0 0.518-0.232 0.518-0.518s-0.232-0.518-0.518-0.518z"></path>
<path fill="#000" d="M19.317 12.717h-2.212c-0.286 0-0.518 0.232-0.518 0.518s0.232 0.518 0.518 0.518h2.212c0.286 0 0.518-0.232 0.518-0.518s-0.232-0.518-0.518-0.518z"></path>
<path fill="#000" d="M10.471 9.952h-2.212c-0.286 0-0.518 0.232-0.518 0.518s0.232 0.518 0.518 0.518h2.212c0.286 0 0.518-0.232 0.518-0.518s-0.232-0.518-0.518-0.518z"></path>
<path fill="#000" d="M6.048 9.952h-2.212c-0.286 0-0.518 0.232-0.518 0.518s0.232 0.518 0.518 0.518h2.212c0.286 0 0.518-0.232 0.518-0.518s-0.232-0.518-0.518-0.518z"></path>
<path fill="#000" d="M14.894 9.952h-2.212c-0.286 0-0.518 0.232-0.518 0.518s0.232 0.518 0.518 0.518h2.212c0.286 0 0.518-0.232 0.518-0.518s-0.232-0.518-0.518-0.518z"></path>
<path fill="#000" d="M23.741 9.952h-2.212c-0.286 0-0.518 0.232-0.518 0.518s0.232 0.518 0.518 0.518h2.212c0.286 0 0.518-0.232 0.518-0.518s-0.232-0.518-0.518-0.518z"></path>
<path fill="#000" d="M28.164 9.952h-2.212c-0.286 0-0.518 0.232-0.518 0.518s0.232 0.518 0.518 0.518h2.212c0.286 0 0.518-0.232 0.518-0.518s-0.232-0.518-0.518-0.518z"></path>
<path fill="#000" d="M19.317 9.952h-2.212c-0.286 0-0.518 0.232-0.518 0.518s0.232 0.518 0.518 0.518h2.212c0.286 0 0.518-0.232 0.518-0.518s-0.232-0.518-0.518-0.518z"></path>
<path fill="#000" d="M10.471 15.482h-2.212c-0.286 0-0.518 0.232-0.518 0.518s0.232 0.518 0.518 0.518h2.212c0.286 0 0.518-0.232 0.518-0.518s-0.232-0.518-0.518-0.518z"></path>
<path fill="#000" d="M6.048 15.482h-2.212c-0.286 0-0.518 0.232-0.518 0.518s0.232 0.518 0.518 0.518h2.212c0.286 0 0.518-0.232 0.518-0.518s-0.232-0.518-0.518-0.518z"></path>
<path fill="#000" d="M23.741 15.482h-2.212c-0.286 0-0.518 0.232-0.518 0.518s0.232 0.518 0.518 0.518h2.212c0.286 0 0.518-0.232 0.518-0.518s-0.232-0.518-0.518-0.518z"></path>
<path fill="#000" d="M28.164 15.482h-2.212c-0.286 0-0.518 0.232-0.518 0.518s0.232 0.518 0.518 0.518h2.212c0.286 0 0.518-0.232 0.518-0.518s-0.232-0.518-0.518-0.518z"></path>
<path fill="#000" d="M6.048 18.246h-2.212c-0.286 0-0.518 0.232-0.518 0.518s0.232 0.518 0.518 0.518h2.212c0.286 0 0.518-0.232 0.518-0.518s-0.232-0.518-0.518-0.518z"></path>
<path fill="#000" d="M28.164 18.246h-2.212c-0.286 0-0.518 0.232-0.518 0.518s0.232 0.518 0.518 0.518h2.212c0.286 0 0.518-0.232 0.518-0.518s-0.232-0.518-0.518-0.518z"></path>
<path fill="#000" d="M6.048 21.011h-2.212c-0.286 0-0.518 0.232-0.518 0.518s0.232 0.518 0.518 0.518h2.212c0.286 0 0.518-0.232 0.518-0.518s-0.232-0.518-0.518-0.518z"></path>
<path fill="#000" d="M28.164 21.011h-2.212c-0.286 0-0.518 0.232-0.518 0.518s0.232 0.518 0.518 0.518h2.212c0.286 0 0.518-0.232 0.518-0.518s-0.232-0.518-0.518-0.518z"></path>
<path fill="#000" d="M20.237 19.684c0.202-0.203 0.202-0.531 0-0.733s-0.531-0.202-0.733 0l-2.782 2.782c-0.218-0.108-0.462-0.17-0.722-0.17-0.714 0-1.322 0.464-1.539 1.106h-0.673c-0.286 0-0.518 0.232-0.518 0.518s0.232 0.518 0.518 0.518h0.673c0.024 0.070 0.052 0.138 0.084 0.203l-0.906 0.906c-0.202 0.203-0.202 0.531 0 0.733 0.101 0.101 0.234 0.152 0.367 0.152s0.265-0.051 0.367-0.152l0.906-0.906c0.217 0.108 0.462 0.17 0.722 0.17 0.714 0 1.322-0.464 1.539-1.106h2.332c0.286 0 0.518-0.232 0.518-0.518s-0.232-0.518-0.518-0.518h-2.331c-0.024-0.070-0.052-0.138-0.084-0.203l2.782-2.782zM16 23.775c-0.324 0-0.587-0.264-0.587-0.587s0.264-0.587 0.587-0.587 0.587 0.264 0.587 0.587-0.264 0.587-0.587 0.587z"></path>
</svg>
