<?xml version="1.0" encoding="utf-8"?>
<!-- Generated by IcoMoon.io -->
<!DOCTYPE svg PUBLIC "-//W3C//DTD SVG 1.1//EN" "http://www.w3.org/Graphics/SVG/1.1/DTD/svg11.dtd">
<svg version="1.1" xmlns="http://www.w3.org/2000/svg" xmlns:xlink="http://www.w3.org/1999/xlink" width="32" height="32" viewBox="0 0 32 32">
<path preserve--fill="#efce4a" d="M25.558 32h-24.695c-0.568 0-0.982-0.54-0.833-1.089l5.609-15.377c0.102-0.376 0.443-0.638 0.833-0.638h24.695c0.568 0 0.833 0.543 0.833 1.089l-5.609 15.377c-0.102 0.376-0.443 0.638-0.833 0.638z"></path>
<path preserve--fill="#ebba16" d="M27.734 9.931h-1.251v4.966h2.207v-4.010c0-0.528-0.428-0.956-0.956-0.956z"></path>
<path preserve--fill="#ebba16" d="M2.207 6.069h-1.251c-0.527 0-0.956 0.428-0.956 0.956v23.574c0.038 0.001 0.076 0.003 0.113 0.006l2.094-5.709v-18.826z"></path>
<path preserve--fill="#f4efdc" d="M5.639 15.534c0.102-0.376 0.443-0.638 0.833-0.638h20.010v-14.897h-20.966v15.868l0.122-0.334z"></path>
<path preserve--fill="#cec9ae" d="M9.379 8.828h13.241c0.305 0 0.552-0.247 0.552-0.552s-0.247-0.552-0.552-0.552h-13.241c-0.305 0-0.552 0.247-0.552 0.552s0.247 0.552 0.552 0.552z"></path>
<path preserve--fill="#cec9ae" d="M9.379 4.966h5.517c0.305 0 0.552-0.247 0.552-0.552s-0.247-0.552-0.552-0.552h-5.517c-0.305 0-0.552 0.247-0.552 0.552s0.247 0.552 0.552 0.552z"></path>
<path preserve--fill="#cec9ae" d="M22.621 11.586h-13.241c-0.305 0-0.552 0.247-0.552 0.552s0.247 0.552 0.552 0.552h13.241c0.305 0 0.552-0.247 0.552-0.552s-0.247-0.552-0.552-0.552z"></path>
<path preserve--fill="#cec9ae" d="M5.517 15.868v-14.765h-1.655v19.303z"></path>
<path preserve--fill="#d1bf86" d="M3.862 20.406v-18.199h-1.655v22.737z"></path>
</svg>
