<?xml version="1.0" encoding="utf-8"?>
<!-- Generated by IcoMoon.io -->
<!DOCTYPE svg PUBLIC "-//W3C//DTD SVG 1.1//EN" "http://www.w3.org/Graphics/SVG/1.1/DTD/svg11.dtd">
<svg version="1.1" xmlns="http://www.w3.org/2000/svg" xmlns:xlink="http://www.w3.org/1999/xlink" width="32" height="32" viewBox="0 0 32 32">
<path fill="#000" d="M28.135 8.519h-1.879c-0.361-4.758-4.348-8.519-9.197-8.519h-2.119c-4.849 0-8.836 3.761-9.197 8.519h-1.879c-1.886 0-3.421 1.534-3.421 3.421v5.991c0 1.886 1.534 3.421 3.421 3.421h2.556c0.389 0 0.704-0.315 0.704-0.704v-11.424c0-4.309 3.506-7.816 7.816-7.816h2.119c4.309 0 7.816 3.506 7.816 7.816v11.393c0 3.332-2.104 6.269-5.194 7.366-0.445-1.006-1.452-1.711-2.621-1.711-1.58 0-2.865 1.285-2.865 2.865s1.285 2.865 2.865 2.865c1.494 0 2.725-1.151 2.853-2.612 3.545-1.15 6.046-4.329 6.34-8.037h1.882c1.886 0 3.421-1.534 3.421-3.421v-5.991c-0-1.886-1.534-3.421-3.421-3.421zM5.717 19.944h-1.852c-1.11 0-2.013-0.903-2.013-2.013v-5.991c0-1.11 0.903-2.013 2.013-2.013h1.852v10.016zM17.059 30.592c-0.803 0-1.457-0.654-1.457-1.457s0.654-1.457 1.457-1.457 1.457 0.654 1.457 1.457-0.654 1.457-1.457 1.457zM30.148 17.931c0 1.11-0.903 2.013-2.013 2.013h-1.852v-10.016h1.852c1.11 0 2.013 0.903 2.013 2.013v5.991z"></path>
</svg>
