<?xml version="1.0" encoding="utf-8"?>
<!-- Generated by IcoMoon.io -->
<!DOCTYPE svg PUBLIC "-//W3C//DTD SVG 1.1//EN" "http://www.w3.org/Graphics/SVG/1.1/DTD/svg11.dtd">
<svg version="1.1" xmlns="http://www.w3.org/2000/svg" xmlns:xlink="http://www.w3.org/1999/xlink" width="32" height="32" viewBox="0 0 32 32">
<path preserve--fill="#48a0dc" d="M32 16c0 8.837-7.163 16-16 16s-16-7.163-16-16c0-8.837 7.163-16 16-16s16 7.163 16 16z"></path>
<path preserve--fill="#fff" d="M16 25.6c-0.384 0-0.64-0.256-0.64-0.64v-1.28c0-0.384 0.256-0.64 0.64-0.64s0.64 0.256 0.64 0.64v1.28c0 0.384-0.256 0.64-0.64 0.64z"></path>
<path preserve--fill="#fff" d="M16 21.12c-0.384 0-0.64-0.256-0.64-0.64v-1.792c0-2.176 1.024-4.096 2.688-5.184 1.152-0.704 1.792-1.92 1.792-3.264 0-2.048-1.792-3.776-3.776-3.776-1.024 0-1.984 0.384-2.752 1.088s-1.152 1.664-1.152 2.688c0 0.384-0.256 0.64-0.64 0.64s-0.64-0.256-0.64-0.64c0-1.408 0.512-2.688 1.536-3.648 0.96-0.96 2.304-1.472 3.648-1.472 2.752 0.064 4.992 2.304 5.056 5.056 0 1.792-0.832 3.392-2.368 4.352-1.344 0.832-2.112 2.432-2.112 4.096v1.856c0 0.384-0.256 0.64-0.64 0.64z"></path>
</svg>
