<?xml version="1.0" encoding="utf-8"?>
<!-- Generated by IcoMoon.io -->
<!DOCTYPE svg PUBLIC "-//W3C//DTD SVG 1.1//EN" "http://www.w3.org/Graphics/SVG/1.1/DTD/svg11.dtd">
<svg version="1.1" xmlns="http://www.w3.org/2000/svg" xmlns:xlink="http://www.w3.org/1999/xlink" width="32" height="32" viewBox="0 0 32 32">
<path fill="#000" d="M30.483 21.35c-0.227-0.622-0.71-1.103-1.326-1.32s-1.288-0.149-1.846 0.186l-5.403 3.242-0.743 0.318h-3.898c-0.048 0-0.074-0.027-0.088-0.049s-0.026-0.058-0.005-0.101c0.012-0.024 0.033-0.043 0.058-0.052l2.958-1.057c1.145-0.385 1.801-1.556 1.494-2.669-0.161-0.584-0.543-1.062-1.076-1.346-0.525-0.279-1.149-0.332-1.712-0.143l-3.053 1.017-8.015 0.534c-0.526 0.035-1.021 0.26-1.394 0.633l-4.36 4.36c-0.836 0.836-0.914 2.163-0.176 3.020 0.195 0.227 1.035 1.032 2.294 2.234 0.734 0.701 1.427 1.362 1.756 1.691 0.101 0.101 0.233 0.152 0.367 0.152 0.117 0 0.235-0.040 0.332-0.12l2.395-1.996c0.502-0.418 1.138-0.649 1.792-0.649h8.199c0.297 0 0.586-0.059 0.858-0.176l3.869-1.658c0.011-0.005 0.021-0.010 0.032-0.015l0.196-0.1c0.010-0.005 0.021-0.011 0.031-0.017l5.48-3.288c0.925-0.555 1.339-1.661 0.985-2.631zM28.965 23.092l-5.465 3.279-0.165 0.084-3.853 1.651c-0.143 0.061-0.294 0.092-0.45 0.092h-8.198c-0.896 0-1.768 0.316-2.456 0.889l-2.034 1.695c-0.372-0.361-0.892-0.858-1.435-1.376-0.912-0.871-2.048-1.955-2.224-2.16-0.379-0.441-0.324-1.164 0.124-1.611l4.36-4.36c0.195-0.195 0.455-0.313 0.73-0.331l8.082-0.539c0.044-0.003 0.088-0.011 0.129-0.025l3.116-1.039c0.119-0.040 0.241-0.060 0.363-0.060 0.184 0 0.366 0.045 0.533 0.134 0.279 0.149 0.48 0.4 0.564 0.707 0.158 0.573-0.213 1.207-0.828 1.412-0.004 0.001-0.007 0.002-0.010 0.004l-2.963 1.059c-0.281 0.1-0.508 0.303-0.64 0.571-0.175 0.356-0.155 0.77 0.055 1.107s0.572 0.538 0.968 0.538h4.005c0.070 0 0.14-0.014 0.204-0.042l0.873-0.374c0.022-0.009 0.042-0.020 0.062-0.032l5.433-3.26c0.292-0.176 0.644-0.211 0.967-0.097 0.327 0.116 0.575 0.364 0.697 0.698 0.181 0.496-0.053 1.092-0.544 1.386z"></path>
<path fill="#000" d="M20.157 16.518c4.554 0 8.259-3.705 8.259-8.259s-3.705-8.259-8.259-8.259-8.259 3.705-8.259 8.259 3.705 8.259 8.259 8.259zM20.157 1.037c3.982 0 7.222 3.24 7.222 7.222s-3.24 7.222-7.222 7.222-7.222-3.24-7.222-7.222 3.24-7.222 7.222-7.222z"></path>
<path fill="#000" d="M17.358 10.194c0-0.286-0.232-0.518-0.518-0.518s-0.518 0.232-0.518 0.518c0 1.002 0.895 1.846 2.212 2.23v0.258c0 0.286 0.232 0.518 0.518 0.518s0.518-0.232 0.518-0.518v-0.062c0.191 0.018 0.387 0.027 0.587 0.027s0.396-0.009 0.587-0.027v0.062c0 0.286 0.232 0.518 0.518 0.518s0.518-0.232 0.518-0.518v-0.258c1.317-0.384 2.212-1.228 2.212-2.23s-0.895-1.846-2.212-2.23v-2.78c0.731 0.278 1.175 0.724 1.175 1.14 0 0.286 0.232 0.518 0.518 0.518s0.518-0.232 0.518-0.518c0-1.002-0.895-1.846-2.212-2.23v-0.258c0-0.286-0.232-0.518-0.518-0.518s-0.518 0.232-0.518 0.518v0.062c-0.191-0.018-0.387-0.027-0.587-0.027s-0.396 0.009-0.587 0.027v-0.062c0-0.286-0.232-0.518-0.518-0.518s-0.518 0.232-0.518 0.518v0.258c-1.317 0.384-2.212 1.228-2.212 2.23s0.895 1.846 2.212 2.23v2.78c-0.731-0.278-1.175-0.724-1.175-1.14zM21.781 9.054c0.731 0.278 1.175 0.724 1.175 1.14s-0.444 0.862-1.175 1.14v-2.28zM19.569 4.94c0.187-0.021 0.384-0.033 0.587-0.033s0.4 0.011 0.587 0.033v2.828c-0.191-0.018-0.387-0.027-0.587-0.027-0.204 0-0.4-0.011-0.587-0.033v-2.768zM19.569 8.75c0.191 0.018 0.387 0.027 0.587 0.027 0.204 0 0.4 0.011 0.587 0.033v2.768c-0.187 0.021-0.384 0.033-0.587 0.033s-0.4-0.011-0.587-0.033v-2.828zM17.358 6.324c0-0.416 0.444-0.862 1.175-1.14v2.28c-0.731-0.278-1.175-0.724-1.175-1.14z"></path>
</svg>
