<?xml version="1.0" encoding="utf-8"?>
<!-- Generated by IcoMoon.io -->
<!DOCTYPE svg PUBLIC "-//W3C//DTD SVG 1.1//EN" "http://www.w3.org/Graphics/SVG/1.1/DTD/svg11.dtd">
<svg version="1.1" xmlns="http://www.w3.org/2000/svg" xmlns:xlink="http://www.w3.org/1999/xlink" width="32" height="32" viewBox="0 0 32 32">
<path fill="#000" d="M20.75 17.5c-0.276 0-0.5 0.224-0.5 0.5v9h-17v-22h5.5c0.276 0 0.5-0.224 0.5-0.5s-0.224-0.5-0.5-0.5h-5.5v-0.5c0-1.378 1.122-2.5 2.5-2.5h12c0.276 0 0.5-0.224 0.5-0.5s-0.224-0.5-0.5-0.5h-12c-1.93 0-3.5 1.57-3.5 3.5v25c0 1.93 1.57 3.5 3.5 3.5h12c1.93 0 3.5-1.57 3.5-3.5v-10.5c0-0.276-0.224-0.5-0.5-0.5zM17.75 31h-12c-1.378 0-2.5-1.122-2.5-2.5v-0.5h17v0.5c0 1.378-1.122 2.5-2.5 2.5z"></path>
<path fill="#000" d="M12.75 29h-2c-0.276 0-0.5 0.224-0.5 0.5s0.224 0.5 0.5 0.5h2c0.276 0 0.5-0.224 0.5-0.5s-0.224-0.5-0.5-0.5z"></path>
<path fill="#000" d="M8.396 2.146c-0.093 0.093-0.146 0.223-0.146 0.354s0.053 0.261 0.146 0.354c0.093 0.093 0.222 0.146 0.354 0.146s0.261-0.053 0.354-0.146c0.093-0.093 0.146-0.222 0.146-0.354s-0.053-0.261-0.146-0.354c-0.093-0.093-0.222-0.146-0.354-0.146s-0.261 0.053-0.354 0.146z"></path>
<path fill="#000" d="M13.25 8.5h3c0.276 0 0.5-0.224 0.5-0.5s-0.224-0.5-0.5-0.5h-3c-0.276 0-0.5 0.224-0.5 0.5s0.224 0.5 0.5 0.5z"></path>
<path fill="#000" d="M26.25 7.5h-8c-0.276 0-0.5 0.224-0.5 0.5s0.224 0.5 0.5 0.5h8c0.276 0 0.5-0.224 0.5-0.5s-0.224-0.5-0.5-0.5z"></path>
<path fill="#000" d="M26.25 10h-3c-0.276 0-0.5 0.224-0.5 0.5s0.224 0.5 0.5 0.5h3c0.276 0 0.5-0.224 0.5-0.5s-0.224-0.5-0.5-0.5z"></path>
<path fill="#000" d="M13.25 11h8c0.276 0 0.5-0.224 0.5-0.5s-0.224-0.5-0.5-0.5h-8c-0.276 0-0.5 0.224-0.5 0.5s0.224 0.5 0.5 0.5z"></path>
<path fill="#000" d="M26.25 5h-13c-0.276 0-0.5 0.224-0.5 0.5s0.224 0.5 0.5 0.5h13c0.276 0 0.5-0.224 0.5-0.5s-0.224-0.5-0.5-0.5z"></path>
<path fill="#000" d="M26.25 12.5h-13c-0.276 0-0.5 0.224-0.5 0.5s0.224 0.5 0.5 0.5h13c0.276 0 0.5-0.224 0.5-0.5s-0.224-0.5-0.5-0.5z"></path>
<path fill="#000" d="M26.25 2h-13c-1.93 0-3.5 1.57-3.5 3.5v7.5c0 1.76 1.306 3.221 3 3.464v1.829c0 0.406 0.242 0.769 0.617 0.924 0.124 0.052 0.255 0.077 0.384 0.077 0.26 0 0.514-0.102 0.706-0.293l2.5-2.5h9.293c1.93 0 3.5-1.57 3.5-3.5v-7.5c0-1.93-1.57-3.5-3.5-3.5zM28.75 13c0 1.379-1.122 2.5-2.5 2.5h-9.5c-0.133 0-0.26 0.053-0.354 0.146l-2.646 2.646v-2.293c0-0.276-0.224-0.5-0.5-0.5-1.379 0-2.5-1.121-2.5-2.5v-7.5c0-1.378 1.121-2.5 2.5-2.5h13c1.378 0 2.5 1.122 2.5 2.5v7.5z"></path>
</svg>
