<?xml version="1.0" encoding="utf-8"?>
<!-- Generated by IcoMoon.io -->
<!DOCTYPE svg PUBLIC "-//W3C//DTD SVG 1.1//EN" "http://www.w3.org/Graphics/SVG/1.1/DTD/svg11.dtd">
<svg version="1.1" xmlns="http://www.w3.org/2000/svg" xmlns:xlink="http://www.w3.org/1999/xlink" width="32" height="32" viewBox="0 0 32 32">
<path fill="#000" d="M16 11.216c-1.364 0-2.474 1.11-2.474 2.474s1.11 2.474 2.474 2.474 2.474-1.11 2.474-2.474-1.11-2.474-2.474-2.474zM16 15.175c-0.819 0-1.485-0.666-1.485-1.485s0.666-1.485 1.485-1.485 1.485 0.666 1.485 1.485-0.666 1.485-1.485 1.485z"></path>
<path fill="#000" d="M27.513 10.606h1.979v0.99h-1.979v-0.99z"></path>
<path fill="#000" d="M24.874 10.606h1.979v0.99h-1.979v-0.99z"></path>
<path fill="#000" d="M2.441 10.606h4.619v0.99h-4.619v-0.99z"></path>
<path fill="#000" d="M27.513 12.586h1.979v0.99h-1.979v-0.99z"></path>
<path fill="#000" d="M8.379 27.761h15.175v0.99h-15.175v-0.99z"></path>
<path fill="#000" d="M8.379 25.122h15.175v0.99h-15.175v-0.99z"></path>
<path fill="#000" d="M11.019 22.482h12.536v0.99h-12.536v-0.99z"></path>
<path fill="#000" d="M8.379 22.482h1.32v0.99h-1.32v-0.99z"></path>
<path fill="#000" d="M30.845 7.918h-3.794v-7.918h-22.103v7.918h-3.794c-0.637 0-1.155 0.518-1.155 1.155v15.67h4.948v7.258h22.103v-7.258h4.948v-15.67c0-0.637-0.518-1.155-1.155-1.155zM5.938 0.99h20.124v6.928h-20.124v-6.928zM26.062 31.010h-20.124v-10.837h20.124v10.837zM31.010 23.753h-3.959v-3.579h2.474v-1.056h-27.118v1.056h2.54v3.579h-3.959v-14.68c0-0.089 0.076-0.165 0.165-0.165h29.691c0.089 0 0.165 0.076 0.165 0.165v14.68z"></path>
</svg>
