<?xml version="1.0" encoding="utf-8"?>
<!-- Generated by IcoMoon.io -->
<!DOCTYPE svg PUBLIC "-//W3C//DTD SVG 1.1//EN" "http://www.w3.org/Graphics/SVG/1.1/DTD/svg11.dtd">
<svg version="1.1" xmlns="http://www.w3.org/2000/svg" xmlns:xlink="http://www.w3.org/1999/xlink" width="32" height="32" viewBox="0 0 32 32">
<path preserve--fill="#556080" d="M16 0c0 0-3.678 4.414-12.138 4.414v10.53c0 5.498 2.388 10.801 6.711 14.199 1.53 1.203 3.335 2.237 5.427 2.858 2.092-0.621 3.896-1.655 5.427-2.858 4.323-3.398 6.711-8.7 6.711-14.199v-10.53c-8.46 0-12.138-4.414-12.138-4.414z"></path>
<path preserve--fill="#4e9758" d="M16 28.503c-1.171-0.46-2.305-1.117-3.381-1.963-3.411-2.68-5.447-7.015-5.447-11.596v-7.425c4.078-0.52 6.973-1.939 8.828-3.199 1.854 1.26 4.75 2.679 8.828 3.199v7.425c0 4.581-2.036 8.916-5.446 11.596-1.076 0.846-2.21 1.503-3.382 1.963z"></path>
<path preserve--fill="#fff" d="M22.984 11.171c-0.23-0.201-0.578-0.177-0.778 0.052l-7.336 8.383-3.997-3.997c-0.216-0.216-0.564-0.216-0.78 0s-0.216 0.564 0 0.78l4.414 4.414c0.104 0.104 0.244 0.162 0.39 0.162 0.006 0 0.012 0 0.018 0 0.153-0.005 0.296-0.073 0.397-0.188l7.724-8.828c0.201-0.23 0.178-0.578-0.051-0.778z"></path>
</svg>
